<?xml version="1.0" encoding="UTF-8" standalone="no"?>
<svg
   xmlns:dc="http://purl.org/dc/elements/1.1/"
   xmlns:cc="http://creativecommons.org/ns#"
   xmlns:rdf="http://www.w3.org/1999/02/22-rdf-syntax-ns#"
   xmlns:svg="http://www.w3.org/2000/svg"
   xmlns="http://www.w3.org/2000/svg"
   xmlns:sodipodi="http://sodipodi.sourceforge.net/DTD/sodipodi-0.dtd"
   xmlns:inkscape="http://www.inkscape.org/namespaces/inkscape"
   width="512"
   height="512"
   viewBox="0 0 135.46666 135.46667"
   version="1.1"
   id="svg8"
   sodipodi:docname="src.svg"
   inkscape:version="1.0.2 (e86c8708, 2021-01-15)">
  <sodipodi:namedview
     pagecolor="#ffffff"
     bordercolor="#666666"
     borderopacity="1"
     objecttolerance="10"
     gridtolerance="10"
     guidetolerance="10"
     inkscape:pageopacity="0"
     inkscape:pageshadow="2"
     inkscape:window-width="1440"
     inkscape:window-height="900"
     id="namedview838"
     showgrid="false"
     inkscape:zoom="1.3515625"
     inkscape:cx="256"
     inkscape:cy="256"
     inkscape:window-x="0"
     inkscape:window-y="0"
     inkscape:window-maximized="0"
     inkscape:current-layer="svg8" />
  <defs
     id="defs2" />
  <metadata
     id="metadata5">
    <rdf:RDF>
      <cc:Work
         rdf:about="">
        <dc:format>image/svg+xml</dc:format>
        <dc:type
           rdf:resource="http://purl.org/dc/dcmitype/StillImage" />
        <dc:title></dc:title>
      </cc:Work>
    </rdf:RDF>
  </metadata>
  <g
     id="layer1"
     transform="matrix(7.9999997,0,0,7.9999997,8.3999993e-7,2.2399999e-6)">
    <path
       id="path1236"
       style="color:#000000;font-style:normal;font-variant:normal;font-weight:normal;font-stretch:normal;font-size:medium;line-height:normal;font-family:sans-serif;font-variant-ligatures:normal;font-variant-position:normal;font-variant-caps:normal;font-variant-numeric:normal;font-variant-alternates:normal;font-variant-east-asian:normal;font-feature-settings:normal;font-variation-settings:normal;text-indent:0;text-align:start;text-decoration:none;text-decoration-line:none;text-decoration-style:solid;text-decoration-color:#000000;letter-spacing:normal;word-spacing:normal;text-transform:none;writing-mode:lr-tb;direction:ltr;text-orientation:mixed;dominant-baseline:auto;baseline-shift:baseline;text-anchor:start;white-space:normal;shape-padding:0;shape-margin:0;inline-size:0;clip-rule:nonzero;display:inline;overflow:visible;visibility:visible;opacity:1;isolation:auto;mix-blend-mode:normal;color-interpolation:sRGB;color-interpolation-filters:linearRGB;solid-color:#000000;solid-opacity:1;vector-effect:none;fill:#888899;fill-opacity:1;fill-rule:nonzero;stroke:none;stroke-width:1.50022;stroke-linecap:round;stroke-linejoin:round;stroke-miterlimit:4;stroke-dasharray:none;stroke-dashoffset:0;stroke-opacity:1;paint-order:markers stroke fill;color-rendering:auto;image-rendering:auto;shape-rendering:auto;text-rendering:auto;enable-background:accumulate;stop-color:#000000;stop-opacity:1"
       d="m 14.619518,3.3069232 c -0.979601,0 -1.786974,0.802479 -1.786974,1.7838735 v 3.6747324 c 0,0.742785 -0.546471,1.2892569 -1.289257,1.2892569 -0.742785,0 -1.292359,-0.5475744 -1.292359,-1.2892569 V 8.267037 c 0,-0.9796033 -0.8050468,-1.7838733 -1.7846489,-1.7838735 -0.979604,2e-7 -1.7838739,0.8042702 -1.7838739,1.7838735 v 0.4984921 c 0,0.7416825 -0.5495729,1.2892569 -1.2923583,1.2892569 -0.7427858,0 -1.2892574,-0.546471 -1.2892574,-1.2892569 V 6.6793043 c 0,-0.9813936 -0.8081468,-1.7846486 -1.7877494,-1.7846486 -0.9796034,0 -1.78387327,0.8050454 -1.78387355,1.7846486 v 2.0862248 c 0,2.6761919 2.18468775,4.8608809 4.86088035,4.8608809 1.238872,0 2.2538863,-0.579316 3.0762322,-1.327246 0.822345,0.747932 1.8381359,1.327246 3.0770079,1.327246 2.676194,0 4.86088,-2.184689 4.86088,-4.8608809 V 5.0907967 c 0,-0.9796029 -0.805044,-1.7838735 -1.784649,-1.7838735 z m -7.75e-4,1.1900243 c 0.329852,0 0.5954,0.2655482 0.5954,0.5953996 v 3.6716314 c 0,2.0340825 -1.637547,3.6716315 -3.671633,3.6716315 -1.29214,0 -2.4222497,-0.661766 -3.0762309,-1.665258 -0.6539821,1.00349 -1.784091,1.665258 -3.0762322,1.665258 -2.0340838,0 -3.6716314,-1.637549 -3.6716314,-3.6716315 V 6.6800796 c 0,-0.3298515 0.2655482,-0.5953996 0.5953997,-0.5953996 0.329851,0 0.5953997,0.2655481 0.5953997,0.5953996 v 2.0838989 c 0,1.3743805 1.1064511,2.4808325 2.480832,2.4808325 1.3743811,0 2.4808316,-1.106452 2.4808316,-2.4808325 V 8.2678123 c 0,-0.3298517 0.2655488,-0.5953999 0.5954006,-0.5953999 0.3298509,0 0.5953997,0.2655482 0.5953997,0.5953999 v 0.4961662 c 0,1.3743805 1.1064522,2.4808325 2.4808312,2.4808325 1.374382,0 2.480833,-1.106452 2.480833,-2.4808325 V 5.0923471 c 0,-0.3298514 0.265549,-0.5953996 0.5954,-0.5953996 z" />
  </g>
</svg>
