<?xml version="1.0" encoding="UTF-8" standalone="no"?>
<svg
   xmlns:dc="http://purl.org/dc/elements/1.1/"
   xmlns:cc="http://creativecommons.org/ns#"
   xmlns:rdf="http://www.w3.org/1999/02/22-rdf-syntax-ns#"
   xmlns:svg="http://www.w3.org/2000/svg"
   xmlns="http://www.w3.org/2000/svg"
   width="64"
   height="64"
   viewBox="0 0 16.933332 16.933334"
   version="1.1"
   id="svg8">
  <defs
     id="defs2" />
  <metadata
     id="metadata5">
    <rdf:RDF>
      <cc:Work
         rdf:about="">
        <dc:format>image/svg+xml</dc:format>
        <dc:type
           rdf:resource="http://purl.org/dc/dcmitype/StillImage" />
        <dc:title></dc:title>
      </cc:Work>
    </rdf:RDF>
  </metadata>
  <g
     id="layer1">
    <path
       id="rect847"
       style="fill:#ffffff;fill-opacity:0.13333334;stroke:none;stroke-width:0.999999;stroke-opacity:0.266667"
       d="M 4.8007812 0 L 4.8007812 5 L 0 5 L 0 6 L 4.8007812 6 L 4.8007812 17.798828 L 0 17.798828 L 0 18.798828 L 4.8007812 18.798828 L 4.8007812 30.599609 L 0 30.599609 L 0 31.599609 L 4.8007812 31.599609 L 4.8007812 43.398438 L 0 43.398438 L 0 44.398438 L 4.8007812 44.398438 L 4.8007812 64 L 5.8007812 64 L 5.8007812 44.398438 L 17.599609 44.398438 L 17.599609 64 L 18.599609 64 L 18.599609 44.398438 L 30.400391 44.398438 L 30.400391 64 L 31.400391 64 L 31.400391 44.398438 L 43.199219 44.398438 L 43.199219 64 L 44.199219 64 L 44.199219 44.398438 L 64 44.398438 L 64 43.398438 L 44.199219 43.398438 L 44.199219 31.599609 L 64 31.599609 L 64 30.599609 L 44.199219 30.599609 L 44.199219 18.798828 L 64 18.798828 L 64 17.798828 L 44.199219 17.798828 L 44.199219 6 L 64 6 L 64 5 L 44.199219 5 L 44.199219 0 L 43.199219 0 L 43.199219 5 L 31.400391 5 L 31.400391 0 L 30.400391 0 L 30.400391 5 L 18.599609 5 L 18.599609 0 L 17.599609 0 L 17.599609 5 L 5.8007812 5 L 5.8007812 0 L 4.8007812 0 z M 5.8007812 6 L 17.599609 6 L 17.599609 17.798828 L 5.8007812 17.798828 L 5.8007812 6 z M 18.599609 6 L 30.400391 6 L 30.400391 17.798828 L 18.599609 17.798828 L 18.599609 6 z M 31.400391 6 L 43.199219 6 L 43.199219 17.798828 L 31.400391 17.798828 L 31.400391 6 z M 5.8007812 18.798828 L 17.599609 18.798828 L 17.599609 30.599609 L 5.8007812 30.599609 L 5.8007812 18.798828 z M 18.599609 18.798828 L 30.400391 18.798828 L 30.400391 30.599609 L 18.599609 30.599609 L 18.599609 18.798828 z M 31.400391 18.798828 L 43.199219 18.798828 L 43.199219 30.599609 L 31.400391 30.599609 L 31.400391 18.798828 z M 5.8007812 31.599609 L 17.599609 31.599609 L 17.599609 43.398438 L 5.8007812 43.398438 L 5.8007812 31.599609 z M 18.599609 31.599609 L 30.400391 31.599609 L 30.400391 43.398438 L 18.599609 43.398438 L 18.599609 31.599609 z M 31.400391 31.599609 L 43.199219 31.599609 L 43.199219 43.398438 L 31.400391 43.398438 L 31.400391 31.599609 z "
       transform="scale(0.26458333)" />
    <path
       id="rect842"
       style="fill:#ffffff;fill-opacity:0.26666668;stroke:none;stroke-width:0.999999;stroke-opacity:0.266667"
       d="M 56 0 L 56 56 L 0.095703125 56 L 0.095703125 57 L 56 57 L 56 64 L 57 64 L 57 57 L 64.095703 57 L 64.095703 56 L 57 56 L 57 0 L 56 0 z "
       transform="scale(0.26458333)" />
  </g>
</svg>
